<svg width="132" height="52" viewBox="0 0 132 52" fill="none" xmlns="http://www.w3.org/2000/svg">
<g clip-path="url(#clip0_2047_2)">
<path d="M29.8779 31.407L33.6409 31.354V33.527C33.15 33.4513 32.6537 33.4159 32.1569 33.421C31.5919 33.421 30.9559 33.456 30.2489 33.527C30.2489 36.247 28.9419 39.004 26.3269 41.795C23.7119 44.586 20.5499 46.848 16.8399 48.579C13.1649 50.346 9.73794 51.229 6.55794 51.229C4.89794 51.229 3.53694 50.805 2.47694 49.957C1.45194 49.109 0.939941 47.996 0.939941 46.618C0.939941 44.568 2.29994 42.431 5.02094 40.205C7.74094 37.979 10.9209 36.142 14.5609 34.693C18.2009 33.244 21.4859 32.396 24.4189 32.149C24.0659 31.619 23.5179 31.159 22.7759 30.771C22.0339 30.382 20.5149 29.781 18.2179 28.969C15.9209 28.121 14.2959 27.202 13.3419 26.213C12.3879 25.188 11.9109 23.757 11.9109 21.92C11.9109 20.083 12.9009 17.98 14.8789 15.613C16.8541 13.2486 19.2205 11.2408 21.8749 9.67698C24.5949 8.05198 26.9809 7.23898 29.0299 7.23898C29.9489 7.23898 30.7079 7.57499 31.3089 8.24599C31.9089 8.88198 32.2099 9.67698 32.2099 10.631C32.2099 12.186 31.2739 14.147 29.4009 16.514C27.5279 18.846 25.4439 20.63 23.1469 21.867L21.8749 20.065C23.2529 19.358 24.4549 18.263 25.4789 16.779C26.5389 15.259 27.0689 13.952 27.0689 12.857C27.0689 11.762 26.4859 11.214 25.3199 11.214C23.6599 11.214 21.7509 12.256 19.5959 14.341C17.4759 16.391 16.4159 18.316 16.4159 20.118C16.4159 21.355 16.7339 22.326 17.3699 23.033C18.0059 23.74 19.6139 24.623 22.1929 25.683C24.7729 26.708 26.6099 27.626 27.7049 28.439C28.7999 29.216 29.5249 30.206 29.8779 31.407ZM6.23994 45.24C6.23994 46.936 7.61794 47.784 10.3739 47.784C11.8939 47.784 13.8539 47.219 16.2569 46.088C18.694 44.9934 20.8777 43.4053 22.6699 41.424C24.5429 39.445 25.4789 37.414 25.4789 35.329C25.4789 35.082 25.4259 34.711 25.3199 34.216C20.4799 34.676 16.0799 36.036 12.1229 38.297C8.20094 40.558 6.23994 42.873 6.23994 45.24ZM48.1599 35.064L49.3269 36.389C48.4429 37.767 47.3649 38.845 46.0939 39.622C44.8569 40.399 43.6019 40.788 42.3299 40.788C41.0589 40.788 40.0509 40.435 39.3099 39.728C38.5679 38.986 38.1959 37.979 38.1959 36.707C38.1959 33.739 39.3099 29.64 41.5359 24.411C39.7046 24.7005 37.8973 25.1256 36.1289 25.683L35.7589 23.616L35.7059 23.563C37.4719 22.821 39.7859 22.22 42.6479 21.761C42.9309 21.231 43.5679 19.941 44.5559 17.892C46.5359 13.829 47.9489 11.196 48.7959 9.99498L51.0759 10.896C50.7219 11.673 50.1039 12.981 49.2209 14.818C48.2207 16.862 47.2314 18.9114 46.2529 20.966C47.8429 20.86 49.0969 20.807 50.0159 20.807C50.9339 20.807 51.6409 20.948 52.1359 21.231V23.51C51.6409 23.404 50.9159 23.351 49.9619 23.351C49.0439 23.351 47.3829 23.51 44.9799 23.828C42.8959 28.492 41.8529 31.884 41.8529 34.004C41.8529 34.817 42.1009 35.488 42.5949 36.018C43.1249 36.548 43.8149 36.813 44.6629 36.813C45.5459 36.813 46.7109 36.23 48.1599 35.064ZM75.9899 35.647L77.2089 36.548C76.7139 37.608 75.7949 38.615 74.4529 39.569C73.1449 40.523 71.9439 41 70.8489 41C68.7639 41 67.7219 39.905 67.7219 37.714C67.7219 36.689 67.9869 35.47 68.5169 34.057L66.5559 36.071C64.6479 38.014 62.9869 39.321 61.5739 39.993C60.1959 40.664 58.8349 41 57.4929 41C56.1499 41 55.1249 40.629 54.4189 39.887C53.7469 39.11 53.4119 38.05 53.4119 36.707C53.4119 34.234 54.3659 31.796 56.2739 29.393C58.1819 26.955 60.6199 24.976 63.5879 23.457C66.5559 21.937 69.5239 21.16 72.4919 21.125L72.5979 22.874L70.3719 23.351C67.1559 24.058 64.3119 25.471 61.8389 27.591C59.4009 29.711 58.1819 31.831 58.1819 33.951C58.1819 36.036 59.0299 37.078 60.7259 37.078C62.3159 37.078 64.2759 35.965 66.6089 33.739C68.9409 31.513 70.8839 28.899 72.4389 25.895L74.6649 27.22C72.4739 31.637 71.3789 34.446 71.3789 35.647C71.3789 36.142 71.5379 36.566 71.8559 36.919C72.2089 37.237 72.5449 37.396 72.8629 37.396C73.2159 37.396 73.4459 37.378 73.5519 37.343L73.8699 37.237C73.9759 37.167 74.0999 37.078 74.2399 36.972C74.4169 36.866 74.5589 36.76 74.6649 36.654L75.3009 36.177C75.5829 35.965 75.8129 35.788 75.9899 35.647ZM87.4239 26.425C89.1199 24.694 90.6039 23.51 91.8759 22.874C93.1839 22.203 94.4029 21.867 95.5329 21.867C96.6989 21.867 97.6529 22.273 98.3949 23.086C99.1729 23.863 99.5609 24.888 99.5609 26.16C99.5609 29.446 98.1829 32.909 95.4269 36.548C92.6709 40.152 89.7029 41.954 86.5229 41.954C85.5956 41.9592 84.6766 41.779 83.8199 41.424L85.0919 39.092C85.6579 39.233 86.0989 39.304 86.4169 39.304C88.5729 39.304 90.5339 38.103 92.2999 35.7C94.0669 33.297 94.9499 30.93 94.9499 28.598C94.9499 27.856 94.7029 27.255 94.2079 26.796C93.7489 26.301 93.1479 26.054 92.4059 26.054C90.7809 26.054 88.8729 27.361 86.6819 29.976C84.5269 32.591 82.6369 36 81.0119 40.205L77.7779 38.88C78.8379 33.474 80.9579 26.884 84.1379 19.111C87.3179 11.338 89.9679 5.84298 92.0879 2.62798L94.7909 3.58198C92.4589 7.92798 89.9679 13.316 87.3179 19.747C84.7039 26.177 83.1669 30.541 82.7079 32.838C84.1559 30.294 85.7279 28.156 87.4239 26.425ZM109.19 35.912L110.303 36.813C109.101 38.686 108.059 40.046 107.176 40.894C106.328 41.707 105.374 42.113 104.314 42.113C103.254 42.113 102.388 41.689 101.717 40.841C101.045 39.993 100.71 38.933 100.71 37.661C100.71 35.188 102.335 29.87 105.586 21.708C108.836 13.511 112.175 6.30298 115.603 0.0839844L117.935 1.35598C114.547 7.90871 111.418 14.5918 108.554 21.39C105.762 27.997 104.367 32.75 104.367 35.647C104.367 37.307 104.985 38.138 106.222 38.138C107.211 38.138 108.2 37.396 109.19 35.912ZM130.415 25.259C131.334 26.779 131.793 28.457 131.793 30.294C131.793 33.156 130.804 35.718 128.825 37.979C126.847 40.205 124.515 41.318 121.829 41.318C119.78 41.318 118.172 40.735 117.006 39.569C115.876 38.368 115.31 36.725 115.31 34.64C115.31 31.283 116.618 28.28 119.232 25.63C121.847 22.945 124.78 21.602 128.03 21.602C128.631 21.602 129.055 21.62 129.302 21.655L129.461 23.404C126.635 23.404 124.285 24.217 122.412 25.842C120.54 27.467 119.603 29.552 119.603 32.096C119.603 33.616 119.974 34.852 120.716 35.806C121.458 36.725 122.536 37.184 123.949 37.184C125.398 37.184 126.546 36.548 127.394 35.276C128.242 34.004 128.666 32.52 128.666 30.824C128.666 29.093 128.331 27.52 127.659 26.107L130.415 25.259Z" fill="white"/>
</g>
<defs>
<clipPath id="clip0_2047_2">
<rect width="132" height="52" fill="white"/>
</clipPath>
</defs>
</svg>
